<svg width="38" height="38" viewBox="0 0 38 38" fill="none" xmlns="http://www.w3.org/2000/svg">
<g clip-path="url(#clip0_227_16)">
<path d="M33.6034 10.7899C30.4773 10.665 24.5854 14.7551 22.6547 15.9891C20.9758 17.4714 20.4837 16.4356 21.3535 15.5668C22.5563 14.3664 23.5961 12.8034 28.521 10.4092C30.9909 9.20836 31.8001 8.64757 30.9733 7.79932C30.1462 6.95011 28.0028 7.8961 28.5465 7.22999C29.0893 6.56232 29.8477 4.06582 29.0095 3.45032C28.1723 2.83639 26.0184 4.30859 25.5444 5.02688C25.0719 5.74524 25.3312 3.41678 24.2733 2.88248C23.2159 2.34877 22.924 3.28779 22.5187 6.00404C21.7116 11.4205 20.5323 12.8816 19.7483 14.3895C19.18 15.4795 18.0448 15.3195 18.9552 13.2739C19.5532 11.0623 21.689 4.21485 20.6316 1.27037C19.5747 -1.67404 16.9112 1.19059 17.6324 2.92471C15.5643 0.996949 15.016 4.08341 16.8373 7.45524C17.2703 8.25784 18.1731 11.5213 16.4702 15.0492C15.5928 14.534 14.2807 14.1216 12.9298 14.6148C11.4691 15.155 10.3284 15.8146 9.43001 16.5319C8.96102 16.9071 8.55623 17.2989 8.20407 17.7031C6.43039 19.7141 6.01907 21.9418 5.46629 23.2885C5.32238 23.6346 5.16733 24.0816 5.00984 24.5968C4.84834 25.1089 4.68031 25.6863 4.51168 26.3027C3.83251 28.7726 3.15185 31.7709 2.89104 33.0765C2.36981 35.6699 3.3365 36.6977 4.16308 37.3041C4.99321 37.9136 6.26384 38.5276 8.58132 37.2524C10.3139 36.2943 15.3777 33.3203 17.1428 31.8571C17.4634 31.5898 17.8601 31.3134 18.291 30.9988C18.7224 30.6843 19.1853 30.3357 19.6514 29.9269C21.3002 28.4793 22.9786 26.2586 23.1827 22.1394C23.2444 20.7018 22.4619 19.5766 21.7065 18.8925C24.5611 16.2099 27.945 16.0915 28.8409 16.2646C32.603 16.9904 35.3839 15.5427 32.924 14.1472C34.7952 14.3152 36.7289 10.9152 33.6034 10.7899ZM18.1337 28.3041C18.0249 28.3999 17.916 28.4836 17.8072 28.573L14.9229 26.4557C14.5186 26.1597 13.9683 26.2209 13.695 26.5937C13.4246 26.9619 13.5309 27.5055 13.9347 27.802L16.4187 29.6244C16.1544 29.8175 15.8985 30.0056 15.6662 30.1997C14.0601 31.5315 9.17284 34.4133 7.40866 35.3889C6.0463 36.1377 5.66059 35.8544 5.37863 35.6477C5.09823 35.4415 4.71504 35.1607 5.02149 33.6343C5.2578 32.4509 5.82357 29.9499 6.42 27.7022L7.47635 28.4772C7.88062 28.7742 8.43043 28.7119 8.70029 28.3437C8.97371 27.971 8.86788 27.4283 8.46354 27.1318L6.899 25.9826C6.96424 25.7624 7.02844 25.5447 7.09264 25.3431C7.23358 24.8837 7.36948 24.4919 7.48889 24.2039C7.64193 23.8302 7.77582 23.4319 7.91684 23.011C8.32564 21.7907 8.78861 20.4072 9.90219 19.1441C9.93685 19.105 9.97693 19.0684 10.012 19.0297L13.881 21.8688C14.2853 22.1648 14.8305 22.1001 15.1034 21.7279C15.3743 21.3592 15.2725 20.8194 14.8682 20.5225L11.3017 17.9051C12.0235 17.399 12.8657 16.959 13.8248 16.6049C14.6765 16.294 15.5027 16.8533 15.6597 16.9686L20.1145 20.2376C20.3357 20.4001 21.054 20.998 21.0169 21.8748C20.8379 25.4881 19.3822 27.2086 18.1337 28.3041Z" fill="#6D625A"/>
</g>
<defs>
<clipPath id="clip0_227_16">
<rect width="38" height="38" fill="white"/>
</clipPath>
</defs>
</svg>
