<svg width="38" height="38" viewBox="0 0 38 38" fill="none" xmlns="http://www.w3.org/2000/svg">
<path d="M27.5279 18.45C27.5281 18.45 27.5285 18.45 27.5287 18.45C28.9974 18.4498 30.3781 17.8777 31.4163 16.8394L37.4632 10.7925C38.1789 10.0768 38.1789 8.91651 37.4632 8.20082C36.7475 7.48512 35.5871 7.48512 34.8714 8.20082L28.8245 14.2477C28.4784 14.5939 28.0179 14.7846 27.5281 14.7847C27.0384 14.7848 26.5782 14.5943 26.2321 14.2482C25.8861 13.9024 25.6957 13.4422 25.6958 12.9525C25.6959 12.4627 25.8866 12.0023 26.2327 11.6561L32.2799 5.60924C32.9955 4.89355 32.9956 3.73321 32.2799 3.01752C31.5643 2.3019 30.4038 2.30182 29.6881 3.01752L23.6409 9.06443C22.6026 10.1027 22.0305 11.4831 22.0303 12.9517C22.0301 13.7865 22.2152 14.5925 22.5651 15.3237L19.4255 18.4633L5.2757 4.31323C4.56008 3.59761 3.39967 3.59754 2.68398 4.31308C0.953193 6.04394 1.73328e-08 8.34502 1.73328e-08 10.7926C-0.00014842 13.2402 0.953119 15.5414 2.6839 17.2721L7.7627 22.3508C8.47832 23.0664 9.63888 23.0665 10.3544 22.3506L14.2421 18.463L16.834 21.0547L5.49799 32.3908C4.78229 33.1064 4.78229 34.2668 5.49799 34.9825C5.85587 35.3404 6.32486 35.5193 6.79377 35.5193C7.26284 35.5193 7.73183 35.3403 8.08956 34.9825L19.4254 23.6467L29.4654 33.6867C29.8233 34.0446 30.2923 34.2235 30.7612 34.2235C31.2303 34.2235 31.6993 34.0445 32.057 33.6867C32.7727 32.971 32.7727 31.8107 32.057 31.095L22.0171 21.0549L25.1568 17.9153C25.8879 18.265 26.6934 18.45 27.5279 18.45ZM9.05856 18.4631L5.27555 14.6803C4.23716 13.6419 3.66523 12.2612 3.66523 10.7926C3.66523 9.95817 3.84981 9.152 4.1999 8.42087L11.6501 15.8713L9.05856 18.4631Z" fill="#6D625A"/>
</svg>
