<svg width="77" height="77" viewBox="0 0 77 77" fill="none" xmlns="http://www.w3.org/2000/svg">
<path d="M59.63 11.0321C56.8088 3.28065 48.2379 -0.715979 40.4864 2.1052C37.9298 3.03567 35.7821 4.59191 34.1523 6.53766C31.6532 6.09476 29.0076 6.2832 26.4511 7.21367C23.8946 8.14398 21.7467 9.70023 20.1171 11.646C17.6179 11.2031 14.9722 11.3917 12.4157 12.3221C4.66444 15.1433 0.667812 23.7142 3.48899 31.4657C6.31032 39.2172 14.8812 43.2137 22.6327 40.3924H22.6328L28.7197 57.1161L56.7903 46.8994L50.7034 30.1756C58.4547 27.3543 62.4513 18.7837 59.63 11.0321Z" fill="#F9E0A4"/>
<path opacity="0.2" d="M43.199 54.4283C42.7086 54.4283 42.2483 54.1258 42.0708 53.6382L36.1601 37.3984C35.9334 36.7755 36.2546 36.0867 36.8777 35.8599C37.5003 35.6333 38.1894 35.9544 38.4162 36.5774L44.3268 52.8172C44.5536 53.4401 44.2322 54.1289 43.6094 54.3557C43.4741 54.405 43.3353 54.4283 43.199 54.4283Z" fill="black"/>
<path opacity="0.2" d="M35.985 57.0541C35.4946 57.0541 35.0345 56.7515 34.8569 56.2639L28.9463 40.0242C28.7195 39.4012 29.0407 38.7124 29.6638 38.4855C30.2864 38.2589 30.9755 38.5801 31.2023 39.203L37.1129 55.4428C37.3397 56.0657 37.0185 56.7545 36.3954 56.9813C36.2599 57.0308 36.1213 57.0541 35.985 57.0541Z" fill="black"/>
<path opacity="0.2" d="M50.4133 51.8027C49.9228 51.8027 49.4625 51.5001 49.285 51.0125L43.3742 34.7727C43.1474 34.1498 43.4688 33.461 44.0917 33.2342C44.7147 33.0074 45.4036 33.3288 45.6302 33.9517L51.541 50.1915C51.7678 50.8144 51.4465 51.5032 50.8237 51.73C50.688 51.7792 50.5494 51.8027 50.4133 51.8027Z" fill="black"/>
<path d="M56.7901 46.8994L58.7991 52.4192C59.1066 53.2641 58.667 54.2072 57.8223 54.5146L32.824 63.6132C31.9791 63.9206 31.0363 63.481 30.7286 62.6363L28.7197 57.1163L56.7901 46.8994Z" fill="#333E48"/>
<path d="M47.2889 15.6523C50.4593 15.6523 53.0295 13.0821 53.0295 9.9117C53.0295 6.74128 50.4593 4.17114 47.2889 4.17114C44.1185 4.17114 41.5483 6.74128 41.5483 9.9117C41.5483 13.0821 44.1185 15.6523 47.2889 15.6523Z" fill="white"/>
<path d="M54.5551 21.5706C56.0995 21.5706 57.3516 20.3185 57.3516 18.7741C57.3516 17.2296 56.0995 15.9775 54.5551 15.9775C53.0106 15.9775 51.7585 17.2296 51.7585 18.7741C51.7585 20.3185 53.0106 21.5706 54.5551 21.5706Z" fill="white"/>
<path d="M69.4867 73.3475C69.4867 74.696 68.3833 75.7996 67.0347 75.7996H23.2155C21.867 75.7996 20.7634 74.696 20.7634 73.3475V66.1635C20.7634 64.8149 21.867 63.7114 23.2155 63.7114H67.0346C68.3833 63.7114 69.4865 64.8149 69.4865 66.1635L69.4867 73.3475Z" fill="#6E4C4B"/>
<path d="M69.6208 22.9343C65.4577 21.8187 60.0946 28.3335 58.9792 32.4967C58.0474 35.9737 59.6185 39.5306 62.5868 41.2588L56.7453 60.1946C56.346 61.6847 57.2303 63.2164 58.7205 63.6155C60.2104 64.0147 61.7423 63.1304 62.1416 61.6405L66.5502 42.3207C69.9846 42.3082 73.1237 40.0137 74.0557 36.5365C75.1711 32.3734 73.7838 24.0499 69.6208 22.9343Z" fill="#F9BE00"/>
<path opacity="0.1" d="M66.5223 39.053C66.1277 39.053 65.7311 39.0004 65.344 38.8965C64.1739 38.5829 63.196 37.8326 62.5905 36.7836C61.9849 35.7347 61.8239 34.5127 62.1374 33.3428C62.4557 32.1546 63.4975 30.1737 65.1071 28.4263C66.602 26.8036 68.0927 25.9311 68.7747 26.0922C69.4569 26.2536 70.0675 27.2083 70.6579 29.4313C71.3134 31.9001 71.2417 34.4062 70.8976 35.6901C70.3672 37.6702 68.5681 39.053 66.5226 39.053C66.5223 39.053 66.5223 39.053 66.5223 39.053Z" fill="black"/>
<path d="M54.5543 70.9558H35.6958C35.0329 70.9558 34.4954 70.4183 34.4954 69.7554C34.4954 69.0925 35.0329 68.555 35.6958 68.555H54.5542C55.2172 68.555 55.7546 69.0925 55.7546 69.7554C55.7546 70.4185 55.2172 70.9558 54.5543 70.9558Z" fill="#F9BE00"/>
<path d="M69.9316 21.7749C69.5169 21.6638 69.0824 21.6075 68.6406 21.6075C64.008 21.6075 58.961 27.9263 57.8198 32.1861C56.8549 35.7865 58.2253 39.592 61.1743 41.7654L58.8918 49.1642L57.9182 46.4891L52.2268 30.8517C59.8527 27.4206 63.6633 18.6033 60.7582 10.6218C58.4456 4.26839 52.3516 0 45.5935 0C43.7138 0 41.8574 0.328754 40.0756 0.977088C37.6267 1.86845 35.43 3.33912 33.6837 5.25029C32.9783 5.15614 32.2656 5.10862 31.5568 5.10862C29.6772 5.10862 27.8213 5.43737 26.0403 6.08556C23.5912 6.97692 21.3945 8.44759 19.6484 10.3588C18.9433 10.2646 18.2307 10.2171 17.5221 10.2171C15.6425 10.2171 13.7862 10.5458 12.0051 11.194C7.95482 12.6682 4.72112 15.6313 2.89959 19.5377C1.07806 23.4441 0.886609 27.8259 2.36089 31.8762C4.67329 38.2293 10.7674 42.4977 17.5252 42.4977C19.0064 42.4977 20.473 42.2936 21.9002 41.8897L27.5916 57.5267L29.4056 62.5109H23.2156C21.2017 62.5109 19.563 64.1494 19.563 66.1635V73.3475C19.563 75.3615 21.2015 77 23.2156 77H67.0346C69.0485 77 70.687 75.3615 70.687 73.3475V66.1635C70.687 64.1496 69.0485 62.5109 67.0346 62.5109H63.1028C63.1811 62.3311 63.2491 62.1449 63.301 61.9512C63.3049 61.9366 63.3085 61.922 63.3118 61.9074L67.52 43.4654C71.1605 43.0579 74.2502 40.4476 75.2149 36.8471C76.4143 32.3716 75.0423 23.1444 69.9316 21.7749ZM57.6711 52.83C57.7095 52.9355 57.6983 53.0297 57.6785 53.0974L57.674 53.112C57.6676 53.1308 57.6612 53.1482 57.6549 53.1614C57.6263 53.2231 57.5565 53.3341 57.4115 53.3867L32.4136 62.4852C32.1919 62.5663 31.9372 62.4468 31.8569 62.2256L30.2584 57.8336L56.0729 48.438L57.6711 52.83ZM55.7817 62.5109H39.3624L56.7239 56.192L55.5983 59.8406C55.5939 59.8549 55.5898 59.8692 55.5859 59.8837C55.3488 60.7674 55.4202 61.6848 55.7817 62.5109ZM23.7607 39.9819C23.6517 39.6828 23.4285 39.439 23.1401 39.3046C22.9797 39.2298 22.8063 39.1921 22.6328 39.1921C22.494 39.1921 22.3552 39.2162 22.2221 39.2644C20.7045 39.817 19.1243 40.097 17.5254 40.097C11.7729 40.097 6.58551 36.4634 4.61705 31.0551C3.36219 27.6072 3.52506 23.8774 5.07559 20.5522C6.62612 17.2271 9.37872 14.7047 12.8264 13.45C14.3436 12.8978 15.9236 12.6179 17.5224 12.6179C18.319 12.6179 19.1215 12.6885 19.9077 12.8279C20.3312 12.9029 20.7615 12.7461 21.0373 12.4167C22.5787 10.5765 24.5927 9.16751 26.8618 8.34172C28.3788 7.78948 29.9585 7.50961 31.5571 7.50961C32.3537 7.50961 33.1564 7.58014 33.9428 7.71955C34.3657 7.79475 34.7965 7.63774 35.0724 7.30838C36.6139 5.46805 38.6279 4.05904 40.897 3.2331C42.4143 2.68071 43.9944 2.40069 45.5934 2.40069C51.3458 2.40069 56.5334 6.03427 58.5017 11.4426C61.0922 18.5596 57.4096 26.4572 50.2923 29.0476C49.6693 29.2744 49.3482 29.9632 49.575 30.5861L55.2515 46.1819L29.4369 55.5776L23.7607 39.9819ZM67.0344 64.9118C67.7247 64.9118 68.286 65.4732 68.286 66.1635V73.3475C68.286 74.0378 67.7246 74.5992 67.0344 74.5992H23.2154C22.5251 74.5992 21.9637 74.0378 21.9637 73.3475V66.1635C21.9637 65.4732 22.5251 64.9118 23.2154 64.9118H32.2534C32.2582 64.9118 32.2629 64.9122 32.2677 64.9122C32.2719 64.9122 32.2761 64.9118 32.2804 64.9118H67.0344ZM72.8961 36.2258C72.1265 39.0969 69.5153 41.1096 66.5455 41.1203C65.9871 41.1224 65.5038 41.5092 65.3795 42.0536L60.9767 61.3484C60.784 62.0339 60.1569 62.5109 59.4448 62.5109C59.3062 62.5109 59.1669 62.4926 59.0308 62.456C58.6199 62.3459 58.2763 62.0825 58.0636 61.7138C57.8541 61.351 57.7962 60.9293 57.8997 60.5243L63.7337 41.6126C63.8982 41.079 63.6732 40.5023 63.1904 40.2215C60.624 38.7274 59.3689 35.6787 60.1384 32.8074C60.607 31.0587 61.9599 28.7888 63.5849 27.0246C65.3507 25.1077 67.1932 24.0082 68.6403 24.0082C68.8725 24.0082 69.0979 24.0371 69.31 24.0938C72.5368 24.9585 73.9217 32.3978 72.8961 36.2258Z" fill="#1E252B"/>
</svg>
